# xmcd
#
# Track frame offsets:
#	150
#	21424
#	40406
#	64656
#	82465
#	99411
#	123177
#	138887
#	157055
#	177471
#	189140
#	208892
#	226785
#	242660
#	256119
#	279248
#	293559
#	313885
#	332505
#
# Disc length: 4652 seconds
#
# Revision: 0
# Processed by: cddbd v1.5.2PL0 Copyright (c) Steve Scherf et al.
# Submitted via: audiograbber 1.83.01
#
DISCID=0d122a13
DTITLE=Various Artist - The Musica Collection - The 70's
DYEAR=1900
DGENRE=
TTITLE0=Boston - More Than a Feeling (LP)
TTITLE1=Meatloaf - You Took the Words (Right Out of My Mouth)
TTITLE2=Kansas - Carry On Wayward Son
TTITLE3=Toto - Hold the Line
TTITLE4=JD Souther - You're Only Lonely
TTITLE5=Santana - Black Magic Woman
TTITLE6=Mott the Hoople - All the Young Dudes
TTITLE7=Billy Swan - I Can Help
TTITLE8=Janis Joplin - Me and Bobby McGee
TTITLE9=Sutherland Bros and Quiver - The Arms of Mary
TTITLE10=Heart - Barracuda
TTITLE11=Ram Jam - Black Betty
TTITLE12=Electric Light Orchestra - Livin' Thing
TTITLE13=Chase - Get It On
TTITLE14=Blue Oyster Cult - Don't Fear the Reaper
TTITLE15=Pavlov's Dog - Julia
TTITLE16=Justin Hayward - Forever Autumn
TTITLE17=Dave Loggins - Please Come to Boston
TTITLE18=Cheap Trick - I Want You to Want Me
EXTD=
EXTT0=
EXTT1=
EXTT2=
EXTT3=
EXTT4=
EXTT5=
EXTT6=
EXTT7=
EXTT8=
EXTT9=
EXTT10=
EXTT11=
EXTT12=
EXTT13=
EXTT14=
EXTT15=
EXTT16=from "The War of the Worlds"
EXTT17=
EXTT18=
PLAYORDER=
